<svg xmlns="http://www.w3.org/2000/svg" width="48" height="48" viewBox="0 0 48 48"><defs><style>.a,.b{fill:#fff;}.a{opacity:0;}</style></defs><g transform="translate(-313.949 -516.949)"><circle class="a" cx="24" cy="24" r="24" transform="translate(313.949 516.949)"/><path class="b" d="M24.438-11.82v-6.867A1.452,1.452,0,0,0,23-20.125h0a1.434,1.434,0,0,0-.9.315l-3.82,3.056A10.9,10.9,0,0,1,11.5-14.375H2.875A2.875,2.875,0,0,0,0-11.5v4.313A2.875,2.875,0,0,0,2.875-4.312L2.853-2.875A11.38,11.38,0,0,0,4,2.109a1.41,1.41,0,0,0,1.276.766h4.774A1.428,1.428,0,0,0,11.215.6,5.721,5.721,0,0,1,10.04-2.875a5.436,5.436,0,0,1,.2-1.437H11.5a10.9,10.9,0,0,1,6.782,2.379L22.1,1.122a1.675,1.675,0,0,0,.9.315A1.443,1.443,0,0,0,24.437,0V-6.867a2.863,2.863,0,0,0,1.438-2.476A2.861,2.861,0,0,0,24.438-11.82ZM5.738.719A9.17,9.17,0,0,1,5.01-2.875a10.062,10.062,0,0,1,.117-1.437H8.042a7.531,7.531,0,0,0-.158,1.438A7.832,7.832,0,0,0,8.747.719Zm5.043-7.187H2.875a.72.72,0,0,1-.719-.719V-11.5a.72.72,0,0,1,.719-.719h7.906ZM22.281-1.5,19.629-3.618a13.067,13.067,0,0,0-6.692-2.76v-5.931a13.066,13.066,0,0,0,6.692-2.761l2.652-2.122Z" transform="translate(324.949 549.949)"/></g></svg>