<svg id="Layer_5" enable-background="new 0 0 64 64" height="512" viewBox="0 0 64 64" width="512" xmlns="http://www.w3.org/2000/svg"><path d="m52 44c-1.017 0-2.011.284-2.874.822l-4.588 2.86c-2.242 1.399-5.171 1.694-7.648.766l-6.19-2.321c-.223-.084-.459-.127-.698-.127-1.042 0-1.919.817-1.997 1.86-.065.875.529 1.727 1.446 2.07l6.035 2.263c2.16.81 4.429 1.013 6.749.604 1.54-.272 3.088-.89 4.6-1.835l5.228-3.267 1.061 1.696-5.228 3.267c-.297.186-.596.36-.896.523v7.819h14v-8c0-4.962-4.037-9-9-9z"/><circle cx="49" cy="37" r="5"/><path d="m29.334 43.92c.045.045.091.087.136.132.175-.024.35-.052.532-.052.479 0 .95.085 1.4.253l6.19 2.321c.591.222 1.218.342 1.852.385-2.551-1.309-4.908-3.009-6.93-5.031l-1.394-1.393c-.34-.34-.81-.535-1.292-.535-1.008 0-1.828.82-1.828 1.829 0 .488.19.948.535 1.293z"/><path d="m15.567 23.777c-.149-.557-.741-.891-1.314-.741l-1.23.316c.091 2.268.534 9.216 2.663 17.197 2.138 8.012 5.229 14.286 6.273 16.287l1.244-.32c.281-.072.515-.247.658-.491.137-.233.174-.505.104-.766z"/><path d="m5 56.726c0-.332.074-.666.216-.965l5.422-11.62c.607-1.301 1.926-2.141 3.362-2.141h.015c-.087-.312-.177-.618-.262-.936-.093-.347-.175-.685-.261-1.028-2.007.182-3.805 1.412-4.668 3.259l-5.422 11.62c-.263.563-.402 1.189-.402 1.811 0 2.357 1.917 4.274 4.273 4.274h8.727v-2h-8.727c-1.253 0-2.273-1.02-2.273-2.274z"/><path d="m38 30v-3h1c1.654 0 3-1.346 3-3v-2.383l.153-.244c1.208-1.92 1.847-4.123 1.847-6.373 0-3.396-1.448-6.647-3.974-8.921-2.56-2.305-5.872-3.372-9.329-3.01-5.467.574-9.926 4.955-10.604 10.417-.346 2.789.261 5.517 1.753 7.887l.154.244v2.383c0 1.654 1.346 3 3 3h1v3c0 .551.448 1 1 1h10c.552 0 1-.449 1-1zm-1-18c2.206 0 4 1.794 4 4s-1.794 4-4 4-4-1.794-4-4 1.794-4 4-4zm-4 9h2v2h-2zm-10-5c0-2.206 1.794-4 4-4s4 1.794 4 4-1.794 4-4 4-4-1.794-4-4zm8 5v2h-2v-2zm5 8h-8v-2h8z"/></svg>