<?xml version="1.0" encoding="iso-8859-1"?>
<!-- Generator: Adobe Illustrator 19.0.0, SVG Export Plug-In . SVG Version: 6.00 Build 0)  -->
<svg version="1.1" id="Capa_1" xmlns="http://www.w3.org/2000/svg" xmlns:xlink="http://www.w3.org/1999/xlink" x="0px" y="0px"
	 viewBox="0 0 496 496" style="enable-background:new 0 0 496 496;" xml:space="preserve">
<g>
	<g>
		<g>
			<path d="M108.952,173.376C147.376,163.936,176,129.288,176,88c0-48.52-39.48-88-88-88S0,39.48,0,88
				c0,30.424,15.528,57.28,39.064,73.088C21.312,165.168,8,181.024,8,200v120h8v8c0,14.864,10.24,27.288,24,30.864V432v16v24
				c0,13.232,10.768,24,24,24h64h32c13.232,0,24-10.768,24-24c0-13.016-6.344-24.488-16-31.792V304h16v-8
				C184,253.68,160.304,198.416,108.952,173.376z M25.344,123.344C19.424,112.888,16,100.848,16,88c0-39.704,32.304-72,72-72
				c12.848,0,24.888,3.424,35.344,9.344L87.248,61.44c-11.696-6.712-26.928-5.08-36.904,4.904
				c-9.984,9.984-11.624,25.208-4.904,36.904L25.344,123.344z M34.88,136.432L67.312,104l-5.656-5.656
				c-5.704-5.704-5.704-14.984,0-20.688c5.704-5.704,14.984-5.704,20.688,0L88,83.312l48.432-48.432
				C150.872,48.056,160,66.96,160,88c0,18.656-7.2,35.632-18.88,48.432c-4.712,0.92-27.056,4.232-38.464-12.872l-13.312,8.872
				c8.424,12.64,20.264,17.88,30.944,19.824C110.568,157.168,99.616,160,88,160C66.96,160,48.056,150.872,34.88,136.432z M80,320h8
				v-16h32v128h-8H56v-73.136c13.76-3.576,24-16,24-30.864V320z M24,304V200c0-13.232,10.768-24,24-24s24,10.768,24,24v104H24z
				 M32,328v-8h32v8c0,8.824-7.176,16-16,16S32,336.824,32,328z M128,480H64c-4.408,0-8-3.592-8-8v-24h56c13.232,0,24,10.768,24,24
				C136,476.408,132.408,480,128,480z M160,480h-9.472c0.896-2.512,1.472-5.184,1.472-8c0-9.04-3.128-17.296-8.208-24H144
				c13.232,0,24,10.768,24,24C168,476.408,164.408,480,160,480z M136,432V304h16v128h-8H136z M160,288h-24h-8H88v-88
				c0-7-1.968-13.48-5.136-19.208c54.744,15.432,81.704,66.16,84.824,107.208H160z"/>
			<rect x="128" y="80" width="16" height="16"/>
			<path d="M472,368h-49.136c-1.64-6.32-5.144-11.832-9.92-16c6.72-5.872,11.056-14.4,11.056-24v-8h8V200
				c0-18.968-13.312-34.824-31.064-38.912C424.472,145.28,440,118.424,440,88c0-48.52-39.48-88-88-88c-48.52,0-88,39.48-88,88
				c0,29.76,14.888,56.064,37.56,72H200v8h-8c-17.648,0-32,14.352-32,32s14.352,32,32,32h8v8h68.408
				C260.048,258.848,256,278.528,256,296v8h8v136h0.248c-9.8,7.296-16.248,18.872-16.248,32c0,13.232,10.768,24,24,24h40h160
				c13.232,0,24-10.768,24-24v-80C496,378.76,485.232,368,472,368z M200,216h-8c-8.824,0-16-7.176-16-16c0-8.824,7.176-16,16-16h8
				V216z M416,200v104h-48V200c0-13.232,10.768-24,24-24S416,186.76,416,200z M392,344c-8.824,0-16-7.176-16-16v-8h32v8
				C408,336.824,400.824,344,392,344z M405.776,368h-27.552c2.776-4.76,7.88-8,13.776-8S403,363.24,405.776,368z M320,304h32v16h8v8
				c0,9.6,4.336,18.128,11.056,24c-4.776,4.168-8.28,9.68-9.92,16H320V304z M304,288h-24h-7.688
				c3.12-41.048,30.08-91.784,84.824-107.208C353.968,186.52,352,193,352,200v88H304z M352,16c39.696,0,72,32.296,72,72
				c0,12.848-3.424,24.888-9.344,35.344l-20.096-20.096c6.712-11.696,5.08-26.92-4.904-36.904
				c-9.984-9.992-25.2-11.616-36.904-4.904l-36.096-36.096C327.112,19.424,339.152,16,352,16z M298.888,136.44
				C287.2,123.632,280,106.656,280,88c0-0.768,0.088-1.512,0.112-2.272L296,80.432V96h16V75.104l10.528-3.512l-5.064-15.176
				l-34.568,11.52c3.752-12.88,11.008-24.24,20.664-33.048L352,83.312l5.656-5.656c5.704-5.704,14.984-5.704,20.688,0
				c5.704,5.704,5.704,14.984,0,20.688L372.688,104l32.432,32.432C391.944,150.872,373.04,160,352,160
				c-11.616,0-22.568-2.832-32.288-7.736c10.688-1.944,22.52-7.184,30.944-19.824l-13.312-8.872
				C325.904,140.728,303.72,137.4,298.888,136.44z M216,224v-48h110.024c-21.528,11.744-37.848,28.92-49.296,48H216z M272,480
				c-4.408,0-8-3.592-8-8c0-13.232,10.768-24,24-24v24c0,2.816,0.576,5.488,1.472,8H272z M288,392v40c-2.736,0-5.416,0.28-8,0.808
				V304h24v65.472C294.712,372.784,288,381.584,288,392z M480,472c0,4.408-3.592,8-8,8H312c-4.408,0-8-3.592-8-8v-80
				c0-4.408,3.592-8,8-8h160c4.408,0,8,3.592,8,8V472z"/>
			<path d="M400,400.4V392h-16v8.408c-9.12,1.856-16,9.936-16,19.592c0,11.024,8.976,20,20,20h8c2.208,0,4,1.792,4,4s-1.792,4-4,4
				h-8c-2.208,0-4-1.792-4-4v-4h-16v4c0,9.656,6.88,17.736,16,19.592V472h16v-8.408c9.12-1.856,16-9.936,16-19.592
				c0-11.024-8.976-20-20-20h-8c-2.208,0-4-1.792-4-4s1.792-4,4-4h8c2.208,0,4,1.792,4,4v4h16v-4
				C416,410.344,409.12,402.264,400,400.4z"/>
		</g>
	</g>
</g>
<g>
</g>
<g>
</g>
<g>
</g>
<g>
</g>
<g>
</g>
<g>
</g>
<g>
</g>
<g>
</g>
<g>
</g>
<g>
</g>
<g>
</g>
<g>
</g>
<g>
</g>
<g>
</g>
<g>
</g>
</svg>
