<svg id="Capa_1" enable-background="new 0 0 511.874 511.874" height="512" viewBox="0 0 511.874 511.874" width="512" xmlns="http://www.w3.org/2000/svg"><circle cx="125.503" cy="54.565" r="41.015"/><path d="m226.187 155.252c-.128-25.694-21.464-46.598-47.562-46.598-22.444 0-83.421 0-106.243 0-26.139 0-47.51 20.904-47.64 46.697v145.39c0 10.93 8.86 19.79 19.79 19.79s19.79-8.86 19.79-19.79v-145.29c.019-3.777 4.188-7.217 8.387-7.217v339.892c0 13.116 10.805 23.748 23.921 23.748s23.748-10.633 23.748-23.748v-189.82h10.253v189.82c0 13.116 10.633 23.748 23.748 23.748 13.116 0 23.849-10.633 23.849-23.748 0-.157 0-339.782 0-339.892 4.159 0 8.362 3.44 8.381 7.117v145.39c0 10.93 8.86 19.79 19.79 19.79s19.79-8.86 19.79-19.79z"/><circle cx="386.448" cy="54.565" r="41.015"/><path d="m487.132 155.252c-.128-25.694-21.464-46.598-47.562-46.598-22.444 0-83.421 0-106.243 0-26.139 0-47.51 20.904-47.64 46.697v145.39c0 10.93 8.86 19.79 19.79 19.79s19.79-8.86 19.79-19.79l-.001-145.29c.019-3.777 4.188-7.217 8.387-7.217v339.892c0 13.116 10.805 23.748 23.921 23.748s23.748-10.633 23.748-23.748v-189.82h10.253v189.82c0 13.116 10.633 23.748 23.748 23.748 13.116 0 23.849-10.633 23.849-23.748 0-.157 0-339.782 0-339.892 4.159 0 8.362 3.44 8.381 7.117v145.39c0 10.93 8.86 19.79 19.79 19.79s19.79-8.86 19.79-19.79z"/><path d="m272.27.007c-4.718.133-8.989 2.053-12.159 5.108-2.342 2.256-6.061 2.181-8.414-.063-3.934-3.752-9.538-5.768-15.584-4.819-6.314.991-11.727 5.337-14.051 11.291-7.633 19.551 21.149 40.391 30.814 46.712 1.866 1.22 4.264 1.236 6.142.035 8.62-5.513 32.34-22.33 32.065-40.292-.153-9.922-8.894-18.252-18.813-17.972z"/></svg>