<?xml version="1.0" encoding="UTF-8" standalone="no"?>
<!-- Created with Inkscape (http://www.inkscape.org/) -->

<svg
   xmlns:dc="http://purl.org/dc/elements/1.1/"
   xmlns:cc="http://creativecommons.org/ns#"
   xmlns:rdf="http://www.w3.org/1999/02/22-rdf-syntax-ns#"
   xmlns:svg="http://www.w3.org/2000/svg"
   xmlns="http://www.w3.org/2000/svg"
   xmlns:sodipodi="http://sodipodi.sourceforge.net/DTD/sodipodi-0.dtd"
   xmlns:inkscape="http://www.inkscape.org/namespaces/inkscape"
   width="233.88205"
   height="203.62502"
   id="svg2"
   version="1.1"
   inkscape:version="0.47 r22583"
   sodipodi:docname="police brutality.svg">
  <defs
     id="defs4">
    <inkscape:perspective
       sodipodi:type="inkscape:persp3d"
       inkscape:vp_x="0 : 526.18109 : 1"
       inkscape:vp_y="0 : 1000 : 0"
       inkscape:vp_z="744.09448 : 526.18109 : 1"
       inkscape:persp3d-origin="372.04724 : 350.78739 : 1"
       id="perspective10" />
    <inkscape:perspective
       id="perspective2824"
       inkscape:persp3d-origin="0.5 : 0.33333333 : 1"
       inkscape:vp_z="1 : 0.5 : 1"
       inkscape:vp_y="0 : 1000 : 0"
       inkscape:vp_x="0 : 0.5 : 1"
       sodipodi:type="inkscape:persp3d" />
    <inkscape:perspective
       id="perspective2838"
       inkscape:persp3d-origin="0.5 : 0.33333333 : 1"
       inkscape:vp_z="1 : 0.5 : 1"
       inkscape:vp_y="0 : 1000 : 0"
       inkscape:vp_x="0 : 0.5 : 1"
       sodipodi:type="inkscape:persp3d" />
    <inkscape:perspective
       id="perspective2864"
       inkscape:persp3d-origin="0.5 : 0.33333333 : 1"
       inkscape:vp_z="1 : 0.5 : 1"
       inkscape:vp_y="0 : 1000 : 0"
       inkscape:vp_x="0 : 0.5 : 1"
       sodipodi:type="inkscape:persp3d" />
  </defs>
  <sodipodi:namedview
     id="base"
     pagecolor="#ffffff"
     bordercolor="#666666"
     borderopacity="1.0"
     inkscape:pageopacity="0.0"
     inkscape:pageshadow="2"
     inkscape:zoom="2.0773479"
     inkscape:cx="71.478598"
     inkscape:cy="101.81251"
     inkscape:document-units="px"
     inkscape:current-layer="layer1"
     showgrid="false"
     inkscape:window-width="1024"
     inkscape:window-height="673"
     inkscape:window-x="-4"
     inkscape:window-y="42"
     inkscape:window-maximized="1"
     borderlayer="true" />
  <metadata
     id="metadata7">
    <rdf:RDF>
      <cc:Work
         rdf:about="">
        <dc:format>image/svg+xml</dc:format>
        <dc:type
           rdf:resource="http://purl.org/dc/dcmitype/StillImage" />
        <dc:title></dc:title>
      </cc:Work>
    </rdf:RDF>
  </metadata>
  <g
     inkscape:label="Ebene 1"
     inkscape:groupmode="layer"
     id="layer1"
     transform="translate(-365.80589,-409.43748)">
    <path
       style="fill:#000000"
       d="m 486.46875,409.4375 c -14.57181,-0.0189 -25.50166,15.40333 -18.625,28.9375 1.98779,3.91224 4.80504,7.03275 21.75,24.40625 l 6.34375,6.53125 4.65625,-0.625 c 4.50937,-0.61464 14.94458,-5.13952 16.3125,-7.0625 1.06236,-1.49343 -0.99674,-4.51714 -7.875,-11.65625 l -6.34375,-6.59375 1.5625,-3.75 c 1.81354,-4.34042 1.26843,-8.33407 -1.59375,-11.40625 -1.77792,-1.90838 -1.88109,-2.56874 -0.8125,-6.8125 1.17785,-4.67768 1.19473,-4.69731 -2.125,-7.46875 -1.84636,-1.54141 -5.70931,-3.31624 -8.625,-3.96875 -1.56975,-0.3513 -3.11757,-0.52929 -4.625,-0.53125 z M 517,425.40625 c -0.68268,0.0532 -1.40942,0.30585 -2.40625,0.71875 -4.8922,2.02642 -5.875,3.6085 -5.875,9.46875 0,2.95983 -0.53476,6.56741 -1.1875,8 -1.05335,2.31186 -0.89436,2.8354 1.34375,4.78125 4.47776,3.89216 9.8018,11.66145 9.15625,13.34375 -0.67535,1.75992 -13.72873,8.34375 -16.53125,8.34375 -1.66846,0 -1.77325,2.05223 -1.78125,33.25 l -0.0312,33.25 9.78125,9.25 9.75,9.25 0.28125,-18.5 c 0.2637,-17.91918 1.28738,-23.37476 2.59375,-13.84375 0.34975,2.55177 0.615,11.66427 0.625,20.25 l 0.0312,15.59375 9.21875,8.1875 c 5.07754,4.50265 9.5875,8.2151 10,8.25 0.4125,0.0349 0.75,-26.9375 0.75,-59.9375 0,-67.51796 -0.73977,-61.96871 7.78125,-57.84375 5.25586,2.54431 5.26156,2.0464 -0.6875,19.15625 -2.25617,6.48889 -4.08,12.56389 -4.0625,13.5 0.0634,3.39571 4.73604,7.1875 8.84375,7.1875 4.39324,0 6.73322,-4.06842 13.09375,-22.8125 7.74307,-22.81835 7.90887,-22.00207 -5.78125,-28.46875 -11.92667,-5.63369 -20.41315,-9.47281 -30.1875,-13.6875 -4.125,-1.7787 -8.97256,-4.15371 -10.78125,-5.25 -1.79327,-1.08696 -2.79971,-1.52614 -3.9375,-1.4375 z M 476.96875,440.25 c 1.21943,-0.13021 2.6702,0.45759 3,1.71875 0.92128,3.52294 6.59997,6.22451 12.03125,5.71875 2.63851,-0.2457 5.38095,-0.93968 6.09375,-1.53125 0.98873,-0.82057 2.89028,0.58337 7.96875,5.84375 3.66119,3.79234 6.65625,7.28737 6.65625,7.78125 0,0.49388 -1.99085,1.85776 -4.40625,3.03125 -2.41541,1.1735 -5.91128,2.43044 -7.78125,2.78125 -3.29413,0.61799 -3.72637,0.2635 -14.34375,-10.90625 -6.02712,-6.34069 -10.96875,-12.10099 -10.96875,-12.8125 0,-0.97532 0.80155,-1.52373 1.75,-1.625 z m -63.59375,6.5 c -0.97655,-0.0194 -1.8307,0.24256 -2.71875,0.6875 -3.26917,1.63795 -5.14825,6.60921 -3.625,9.625 1.08712,2.15233 22.24339,15.76776 35.6875,22.96875 3.025,1.62026 6.85,3.8349 8.5,4.9375 3.58042,2.39259 8.37749,2.30613 9.90625,-0.1875 1.26952,-2.07075 -0.26137,-3.61667 -15,-15.1875 -4.89492,-3.84285 -13.14887,-10.32012 -18.3125,-14.375 -7.68462,-6.03455 -11.50784,-8.41064 -14.4375,-8.46875 z m 68.125,14.9375 c -0.0556,-0.002 -0.11789,0.0145 -0.15625,0.0312 -0.61377,0.26852 -3.375,3.4348 -6.125,7.03125 -2.75,3.59645 -7.3625,9.47126 -10.25,13.03125 -2.8875,3.55998 -5.25,7.13071 -5.25,7.9375 0,2.11497 2.72727,7.0874 4.21875,7.6875 2.44049,0.98192 7.40472,0.64644 8.9375,-0.59375 0.84969,-0.6875 4.61244,-5.3 8.34375,-10.25 3.73132,-4.95 7.93395,-10.22937 9.34375,-11.75 l 2.5625,-2.75 -5.34375,-5.40625 c -2.75101,-2.78561 -5.44734,-4.93362 -6.28125,-4.96875 z m -70.9375,19.03125 c -0.0509,-0.005 -0.0617,0.0114 -0.0937,0.0312 -0.55058,0.34027 -0.66768,4.22267 -0.25,9.5 l 0.71875,8.9375 -11.65625,-0.5625 c -7.75329,-0.36689 -11.47823,-0.20392 -11.0625,0.46875 1.52944,2.47468 16.8831,13.96875 18.65625,13.96875 1.0835,0 5.32909,-2.025 9.40625,-4.5 4.07715,-2.475 7.60754,-4.5 7.875,-4.5 0.26746,0 2.09586,2.5194 4.0625,5.59375 1.98911,3.10947 4.11091,5.3962 4.78125,5.125 8.42871,-3.41012 20.71875,-9.21815 20.71875,-9.78125 0,-0.39799 -3.6,-1.04801 -8,-1.4375 l -8,-0.6875 -0.0625,-9.15625 c -0.0387,-5.03026 -0.40782,-9.97012 -0.8125,-11 -0.87085,-2.21627 -1.3448,-1.86193 -7.625,6.15625 -2.2,2.80882 -4.53258,5.13425 -5.1875,5.15625 -0.65492,0.0221 -3.78949,-3.07967 -6.9375,-6.90625 -2.95125,-3.58741 -5.76813,-6.3379 -6.53125,-6.40625 z m 12.15625,27.75 c -1.57806,-0.10632 -4.76714,1.70781 -17.3125,9.21875 -2.85965,1.71208 -10.33484,6.10343 -16.625,9.75 -6.29015,3.64656 -11.81108,7.18365 -12.25,7.875 -0.43892,0.69136 -0.8045,2.68992 -0.8125,4.4375 -0.0172,3.57663 3.76419,7.3205 7.375,7.3125 2.37628,-0.005 11.78432,-4.6375 22,-10.84375 3.62205,-2.15436 7.3456,-4.27612 11.125,-6 1.68234,-0.43994 2.56719,0.50303 7.03125,7.28125 6.66216,10.11582 8.77127,14.96894 8,18.4375 -0.32365,1.45553 -4.29246,6.52916 -8.8125,11.28125 -4.52003,4.75209 -11.12567,11.79882 -14.65625,15.65625 -5.99814,6.55343 -8.02309,7.62737 -10.0625,5.28125 -0.275,-0.31636 -3.65,-3.12156 -7.5,-6.21875 -13.09188,-10.53197 -17.03168,-11.86593 -21.84375,-7.40625 -3.05885,2.83485 -3.41822,6.46504 -0.90625,9.3125 0.9625,1.09104 5.125,4.58154 9.25,7.78125 4.125,3.19972 10.2,8.14228 13.5,10.96875 7.52576,6.44586 10.52972,8.49605 12.46875,8.46875 0.84012,-0.0118 5.7513,-4.73681 10.90625,-10.5 5.15496,-5.76319 9.78607,-10.5 10.28125,-10.5 0.824,0 13.20078,7.08796 19.65625,11.25 1.48348,0.95644 3.3625,2.06304 4.1875,2.4375 0.825,0.37447 3.92772,2.21077 6.90625,4.09375 2.97852,1.88299 6.35352,3.78626 7.5,4.25 1.14647,0.46374 31.37165,0.87135 67.15625,0.90625 l 65.0625,0.0625 2.6875,-2.78125 c 1.87605,-1.95817 2.67845,-3.84461 2.65625,-6.25 -0.0354,-3.83821 -1.18226,-5.65722 -5.1875,-8.21875 -2.47974,-1.58591 -6.83089,-1.75 -50.25,-1.75 -26.14435,0 -47.53125,-0.22378 -47.53125,-0.53125 0,-1.55658 8.31124,-17.46875 9.125,-17.46875 0.52059,0 4.35237,3.375 8.53125,7.5 l 7.59375,7.5 13.9375,0 13.96875,0 -2.03125,-2.5625 c -1.11048,-1.41175 -10.24436,-10.29925 -20.3125,-19.75 -25.97028,-24.37777 -26.87703,-25.1875 -28.125,-25.1875 -0.61766,0 -4.80885,7.2 -9.3125,16 -5.62931,10.99954 -8.65624,15.93749 -9.6875,15.75 -1.56105,-0.28383 -19.44508,-10.94805 -22.21875,-13.25 -0.872,-0.7237 -3.40986,-4.51139 -5.65625,-8.40625 -2.24639,-3.89487 -7.08311,-11.56668 -10.71875,-17.0625 -3.63564,-5.49583 -8.86768,-13.7824 -11.625,-18.40625 -2.75731,-4.62384 -5.68483,-8.84109 -6.53125,-9.375 -0.28901,-0.1823 -0.57333,-0.31921 -0.9375,-0.34375 z m -13.03125,31.6875 c -7.4444,0 -13.5,6.02435 -13.5,13.46875 0,7.4444 6.0556,13.46875 13.5,13.46875 7.4444,0 13.46875,-6.02435 13.46875,-13.46875 0,-7.4444 -6.02435,-13.46875 -13.46875,-13.46875 z"
       id="path2844" />
  </g>
</svg>
