<?xml version="1.0"?>
<svg xmlns="http://www.w3.org/2000/svg" viewBox="0 0 26 26" enable-background="new 0 0 26 26">
    <path style="text-indent:0;text-align:start;line-height:normal;text-transform:none;block-progression:tb;-inkscape-font-specification:Bitstream Vera Sans" d="M 13 0 C 10.802706 0 9 1.8027056 9 4 C 9 5.373309 9.7166647 6.591242 10.78125 7.3125 C 10.065734 7.5165255 9.4407974 7.8166576 8.90625 8.15625 C 8.5196564 6.3539482 6.9120856 5 5 5 C 2.8027056 5 1 6.8027056 1 9 C 1 10.122018 1.4661296 11.146247 2.21875 11.875 C 0.88796165 12.788633 0 14.330163 0 16.09375 L 0 21.09375 C 0 21.863447 0.28319765 22.677912 0.84375 23.3125 C 1.4043023 23.947088 2.2156247 24.423742 3.25 24.8125 C 5.1513901 25.527116 7.9558436 25.908037 11.96875 25.96875 C 12.296875 25.997852 12.65 26 13 26 C 13.35 26 13.703125 25.997852 14.03125 25.96875 C 18.044156 25.908037 20.84861 25.527116 22.75 24.8125 C 23.784375 24.423742 24.595698 23.947088 25.15625 23.3125 C 25.716802 22.677912 26 21.863447 26 21.09375 L 26 16.09375 C 26 14.330163 25.112038 12.788633 23.78125 11.875 C 24.53387 11.146247 25 10.122018 25 9 C 25 6.8027056 23.197294 5 21 5 C 19.087915 5 17.480344 6.3539482 17.09375 8.15625 C 16.559203 7.8166576 15.934266 7.5165255 15.21875 7.3125 C 16.283335 6.591242 17 5.373309 17 4 C 17 1.8027056 15.197294 0 13 0 z M 13 2 C 14.116414 2 15 2.883586 15 4 C 15 5.116414 14.116414 6 13 6 C 11.883586 6 11 5.116414 11 4 C 11 2.883586 11.883586 2 13 2 z M 5 7 C 6.116414 7 7 7.883586 7 9 C 7 10.116414 6.116414 11 5 11 C 3.883586 11 3 10.116414 3 9 C 3 7.883586 3.883586 7 5 7 z M 21 7 C 22.116414 7 23 7.883586 23 9 C 23 10.116414 22.116414 11 21 11 C 19.883586 11 19 10.116414 19 9 C 19 7.883586 19.883586 7 21 7 z M 13 9 C 15.122222 9 16.310338 9.8205139 17.0625 10.65625 C 17.745113 11.414709 17.961175 12.0608 18 12.1875 A 1.0001 1.0001 0 0 0 18.03125 12.28125 A 1.0087508 1.0087508 0 0 0 18.03125 12.3125 A 1.0001 1.0001 0 0 0 18.0625 12.375 A 1.0087508 1.0087508 0 0 0 18.0625 12.40625 A 1.0001 1.0001 0 0 0 18.09375 12.4375 A 1.0087508 1.0087508 0 0 0 18.15625 12.5625 A 1.0001 1.0001 0 0 0 18.21875 12.625 A 1.0087508 1.0087508 0 0 0 18.21875 12.65625 A 1.0001 1.0001 0 0 0 18.25 12.6875 A 1.0087508 1.0087508 0 0 0 18.28125 12.71875 A 1.0001 1.0001 0 0 0 18.3125 12.71875 A 1.0087508 1.0087508 0 0 0 18.34375 12.78125 A 1.0001 1.0001 0 0 0 18.375 12.78125 A 1.0087508 1.0087508 0 0 0 18.8125 13 A 1.0001 1.0001 0 0 0 18.84375 13 A 1.0087508 1.0087508 0 0 0 18.90625 13 A 1.0001 1.0001 0 0 0 18.9375 13 A 1.0087508 1.0087508 0 0 0 19 13 L 19.21875 13 L 21 13 C 22.654545 13 24 14.315489 24 16.09375 L 24 21.09375 C 24 21.424053 23.92382 21.665838 23.65625 21.96875 C 23.388677 22.271662 22.890625 22.626258 22.0625 22.9375 C 21.132019 23.287211 19.750451 23.561136 17.96875 23.75 C 17.82733 21.523933 16.327887 19 13 19 C 9.6721129 19 8.1726704 21.523933 8.03125 23.75 C 6.2495487 23.561136 4.8679814 23.287211 3.9375 22.9375 C 3.1093753 22.626258 2.6113227 22.271662 2.34375 21.96875 C 2.0761773 21.665838 2 21.424053 2 21.09375 L 2 16.09375 C 2 14.315489 3.3454545 13 5 13 L 6.84375 13 L 7 13 A 1.0087508 1.0087508 0 0 0 7.03125 13 A 1.0001 1.0001 0 0 0 7.25 12.96875 A 1.0087508 1.0087508 0 0 0 7.40625 12.90625 A 1.0001 1.0001 0 0 0 7.5625 12.84375 A 1.0087508 1.0087508 0 0 0 7.65625 12.78125 A 1.0001 1.0001 0 0 0 7.6875 12.75 A 1.0087508 1.0087508 0 0 0 7.71875 12.71875 A 1.0001 1.0001 0 0 0 7.75 12.65625 A 1.0087508 1.0087508 0 0 0 7.78125 12.625 A 1.0001 1.0001 0 0 0 7.8125 12.59375 A 1.0087508 1.0087508 0 0 0 7.84375 12.5625 A 1.0001 1.0001 0 0 0 7.875 12.5 A 1.0087508 1.0087508 0 0 0 7.90625 12.46875 A 1.0001 1.0001 0 0 0 7.90625 12.40625 A 1.0087508 1.0087508 0 0 0 7.9375 12.375 A 1.0001 1.0001 0 0 0 8 12.1875 C 8.0388254 12.0608 8.2548868 11.414709 8.9375 10.65625 C 9.6896625 9.8205139 10.877778 9 13 9 z M 13 19 C 14.656854 19 16 17.656854 16 16 C 16 14.343146 14.656854 13 13 13 C 11.343146 13 10 14.343146 10 16 C 10 17.656854 11.343146 19 13 19 z" overflow="visible" enable-background="accumulate" font-family="Bitstream Vera Sans"/>
</svg>
