<?xml version="1.0" encoding="UTF-8" standalone="no"?>
<!-- Generator: Adobe Illustrator 12.0.1, SVG Export Plug-In . SVG Version: 6.00 Build 51448)  -->

<svg
   xmlns:dc="http://purl.org/dc/elements/1.1/"
   xmlns:cc="http://creativecommons.org/ns#"
   xmlns:rdf="http://www.w3.org/1999/02/22-rdf-syntax-ns#"
   xmlns:svg="http://www.w3.org/2000/svg"
   xmlns="http://www.w3.org/2000/svg"
   xmlns:sodipodi="http://sodipodi.sourceforge.net/DTD/sodipodi-0.dtd"
   xmlns:inkscape="http://www.inkscape.org/namespaces/inkscape"
   version="1.1"
   id="Layer_1"
   width="280.211"
   height="381.913"
   viewBox="0 0 280.211 381.913"
   overflow="visible"
   enable-background="new 0 0 280.211 381.913"
   xml:space="preserve"
   inkscape:version="0.48.1 "
   sodipodi:docname="johnnyautomaticsaddogwithabrokenleg.svg"><metadata
   id="metadata3305"><rdf:RDF><cc:Work
       rdf:about=""><dc:format>image/svg+xml</dc:format><dc:type
         rdf:resource="http://purl.org/dc/dcmitype/StillImage" /><dc:title></dc:title></cc:Work></rdf:RDF></metadata><defs
   id="defs3303" /><sodipodi:namedview
   pagecolor="#ffffff"
   bordercolor="#666666"
   borderopacity="1"
   objecttolerance="10"
   gridtolerance="10"
   guidetolerance="10"
   inkscape:pageopacity="0"
   inkscape:pageshadow="2"
   inkscape:window-width="640"
   inkscape:window-height="480"
   id="namedview3301"
   showgrid="false"
   inkscape:zoom="0.76195365"
   inkscape:cx="140.1055"
   inkscape:cy="190.9565"
   inkscape:window-x="0"
   inkscape:window-y="0"
   inkscape:window-maximized="0"
   inkscape:current-layer="Layer_1" />
<g
   id="g3147">
	<path
   fill-rule="evenodd"
   clip-rule="evenodd"
   d="M176.708,40.077c-3.94,4.059-11.07,4.929-16.998,7   c-0.819-4.18-3.521-6.478-5.999-8.999c2.182,4.484,2.992,10.339,3.999,15.998c-1.16,0.839-2.681,1.319-4.999,1   c1.409,10.085-5.545,18.682-12.999,17.998c-0.061-0.005,0.046-1.84,0-2c-7.682,0.349-10.48-4.185-12.999-8.999   c-0.89,0.443-1.788,0.878-2,2c0.395-6.774-1.014-21.121,9.999-22.997c6.173-1.052,14.022,2.125,15.998,9.999   c3.345-5.873-0.366-16.909-6.999-12.999c-0.926-4.521,7.194-3.304,8.999-2c0.707-5.373-0.791-8.542-2-11.998   c4.31-0.356,7.266-2.067,8.999-5C171.179,20.277,177.63,26.49,176.708,40.077z M149.711,52.076c-3.626,1.829-4.331,5.344-8.999,6   c-7.5,1.053-10.89-2.767-12.999-8.999C118.23,70.803,158.15,77.222,149.711,52.076z"
   id="path3149" />
	<path
   fill-rule="evenodd"
   clip-rule="evenodd"
   d="M90.719,49.076c2.268-2.524,6.621,1.32,8.999,2   C97.943,53.107,93.295,49.557,90.719,49.076z"
   id="path3151" />
	<path
   fill-rule="evenodd"
   clip-rule="evenodd"
   d="M87.719,51.076c3.675,0.325,5.533,2.466,8.999,3   C94.895,55.833,88.308,53.87,87.719,51.076z"
   id="path3153" />
	<path
   fill-rule="evenodd"
   clip-rule="evenodd"
   d="M82.72,57.075C77.423,60.137,73.116,55.83,82.72,57.075L82.72,57.075z"
   id="path3155" />
	<path
   fill-rule="evenodd"
   clip-rule="evenodd"
   d="M83.72,57.075c1.494,1.506,5.701,0.299,5,4   C86.344,60.45,84.064,59.73,83.72,57.075z"
   id="path3157" />
	<path
   fill-rule="evenodd"
   clip-rule="evenodd"
   d="M74.721,61.075c-1.706,1.418-7.015,1.866-7.999,1   C68.637,59.93,71.935,59.884,74.721,61.075z"
   id="path3159" />
	<path
   fill-rule="evenodd"
   clip-rule="evenodd"
   d="M112.716,63.075C116.202,67.757,107.671,67.101,112.716,63.075L112.716,63.075z"
   id="path3161" />
	<path
   fill-rule="evenodd"
   clip-rule="evenodd"
   d="M89.719,65.074c1.444-1.701,7.103,0.839,6.999,4   C93.983,68.143,92.455,66.005,89.719,65.074z"
   id="path3163" />
	<path
   fill-rule="evenodd"
   clip-rule="evenodd"
   d="M133.714,78.073c-1.467,0.184,1.337,5.385-3,4.999   c0.919-5.528-3.003-13.222-5.999-17.998c5.787,5.077,10.474,10.011,12.999,15.998C136.381,80.071,134.695,79.424,133.714,78.073z"
   id="path3165" />
	<path
   fill-rule="evenodd"
   clip-rule="evenodd"
   d="M107.717,69.074c-2.187,3.479-7.092,4.24-11.999,5   C98.401,71.09,103.658,70.681,107.717,69.074z"
   id="path3167" />
	<path
   fill-rule="evenodd"
   clip-rule="evenodd"
   d="M53.724,85.072c2.637-0.304,2.579,2.087,3,4   C53.386,90.076,53.445,87.684,53.724,85.072z"
   id="path3169" />
	<path
   fill-rule="evenodd"
   clip-rule="evenodd"
   d="M89.719,97.07c3.239,0.42,3.273,9.999-2,7.999   C85.576,102.632,88.437,99.137,89.719,97.07z"
   id="path3171" />
	<path
   fill-rule="evenodd"
   clip-rule="evenodd"
   d="M52.724,98.07c3.403,0.485,2.187,8.096-1,7.999   C49.64,103.867,53.305,101.775,52.724,98.07z"
   id="path3173" />
	<path
   fill-rule="evenodd"
   clip-rule="evenodd"
   d="M58.723,98.07c3.032-0.033,2.491,3.508,3,5.999   C56.183,104.378,58.974,102.149,58.723,98.07z"
   id="path3175" />
	<path
   fill-rule="evenodd"
   clip-rule="evenodd"
   d="M77.721,103.069c3.613-0.947,1.395,3.938,2,6   C74.095,109.869,76.113,105.22,77.721,103.069z"
   id="path3177" />
	<path
   fill-rule="evenodd"
   clip-rule="evenodd"
   fill="#FFFFFF"
   d="M235.701,106.069c5.19,8.618-0.424,18.114-5.999,21.997   c-2.058-2.101,0.771-2.715,1-6c0.354-5.07-3.695-12.965,1-15.998C233.035,106.069,234.368,106.069,235.701,106.069z"
   id="path3179" />
	<path
   fill-rule="evenodd"
   clip-rule="evenodd"
   d="M100.718,107.069c3.017,0.047,3.101,8.167-1,6.999   C97.713,112.079,100.033,109.308,100.718,107.069z"
   id="path3181" />
	<path
   fill-rule="evenodd"
   clip-rule="evenodd"
   d="M112.716,112.068c-0.329,2.337-1.202,4.131-2,6   C106.11,116.797,108.702,112.522,112.716,112.068z"
   id="path3183" />
	<path
   fill-rule="evenodd"
   clip-rule="evenodd"
   d="M88.719,114.068c4.449-1.099,4.766,4.939,3,7   C87.733,121.72,88.854,117.266,88.719,114.068z"
   id="path3185" />
	<path
   fill-rule="evenodd"
   clip-rule="evenodd"
   d="M180.708,117.068c-3.702,2.963-7.073,6.258-11.998,7.999   C171.637,121.763,176.841,116.185,180.708,117.068z"
   id="path3187" />
	<path
   fill-rule="evenodd"
   clip-rule="evenodd"
   d="M109.717,123.067c3.844,0.879-0.178,4.017,0,6.999   C104.016,129.812,108.136,124.595,109.717,123.067z"
   id="path3189" />
	<path
   fill-rule="evenodd"
   clip-rule="evenodd"
   d="M181.708,123.067c0.179,5.625-11.287,13.229-17.998,11.999   C171.106,132.462,177.297,128.655,181.708,123.067z"
   id="path3191" />
	<path
   fill-rule="evenodd"
   clip-rule="evenodd"
   d="M92.719,140.065c5,0,9.999,0,14.998,0c-3.466,4.686-10.593,1.124-14.998,1   c-1.797-0.051-2.104,1.148-4,1c-13.901-1.088-24.56-8.036-30.996-16.998c9.726,5.272,14.895,15.102,29.996,14.998   c2.916-1.71-2.265-3.639-1-6.999C88.945,135.173,89.474,138.977,92.719,140.065z"
   id="path3193" />
	<path
   fill-rule="evenodd"
   clip-rule="evenodd"
   fill="#FFFFFF"
   d="M189.707,134.065c2.236,0.431,0.405,4.928,1,7   c-4.426,1.426-2.616-3.384-5.999-3C184.947,135.305,188.425,135.784,189.707,134.065z"
   id="path3195" />
	<path
   fill-rule="evenodd"
   clip-rule="evenodd"
   d="M162.71,138.065c-3.436,3.853-11.752,4.877-16.998,4   C151.617,141.422,159.042,137.688,162.71,138.065z"
   id="path3197" />
	<path
   fill-rule="evenodd"
   clip-rule="evenodd"
   fill="#FFFFFF"
   d="M70.722,193.058c-2.236-0.431-0.405-4.928-1-6.999   c-2.667,2.466-1.042,4.766-3,8.999c-2.108,1.558-5.544,1.788-6,4.999c-2.957-5.709-1.955-15.375-6.999-18.998   c1.715,6.617,4.836,11.829,4,20.998c-2.6,0.4-3.016,2.983-5.999,3c0.168-4.835-2.04-7.293-4-9.999   c-1.376,3.27,6.082,11.119,0,13.998c-8.802-11.862-18.846-22.482-32.996-28.996c1.162-3.505,3.747-5.585,5-8.999   c11.182,1.816,14.933,11.064,21.997,16.998c1.153-3.232-2.653-7.539-5-9.999c-3.84-4.026-10.21-7.688-14.998-9.999   c6.498-17.018,26.554-4.554,28.997,7.999c1.041-8.716-8.423-15.567-14.998-19.998c4.535-2.797,7.716-6.949,15.998-6   c7.229,9.436,14.367,18.962,16.998,32.996c1.936-14.273-9.424-23.901-14.998-33.996c4.859-1.146,11.025-1.264,14.998,2   C75.371,156.526,85.147,190.332,70.722,193.058z M46.725,192.058c-1.889-0.11-0.694-3.306-3-2.999   C42.666,191.594,45.83,194.758,46.725,192.058z"
   id="path3199" />
	<path
   fill-rule="evenodd"
   clip-rule="evenodd"
   fill="#FFFFFF"
   d="M215.704,148.064c0.111,2.554,1.833,3.5,2.999,4.999   c-1.302,2.196-5.404-1.182-7.999-1C211.99,150.35,212.772,148.132,215.704,148.064z"
   id="path3201" />
	<path
   fill-rule="evenodd"
   clip-rule="evenodd"
   fill="#FFFFFF"
   d="M87.719,152.063c-0.725,3.058,1.725,2.941,1,5.999   c-1.995-1.005-1.578-4.421-5-4C83.961,152.304,85.44,151.784,87.719,152.063z"
   id="path3203" />
	<path
   fill-rule="evenodd"
   clip-rule="evenodd"
   d="M88.719,171.061c3.632,3.134,1.276,13.562-3,14.998   C87.458,181.798,89.37,177.71,88.719,171.061z"
   id="path3205" />
	<path
   fill-rule="evenodd"
   clip-rule="evenodd"
   d="M43.725,189.059c2.306-0.307,1.111,2.889,3,2.999   C45.83,194.758,42.666,191.594,43.725,189.059z"
   id="path3207" />
	<path
   fill-rule="evenodd"
   clip-rule="evenodd"
   d="M30.727,221.055c-1,0-2,0-3,0c-0.213-6.354-3.447-17.796,2-20.998   c-0.177,6.177-0.539,12.537,4,13.998C32.382,216.044,31.82,218.816,30.727,221.055z"
   id="path3209" />
	<path
   fill-rule="evenodd"
   clip-rule="evenodd"
   fill="#FFFFFF"
   d="M131.714,206.056c1.313,0.354,1.573,1.761,3,2   c-2.967,11.697-5.317,24.013-6.999,36.995c-5.443,0.777-7.271-2.06-10.999-2.999C119.889,228.228,125.318,216.659,131.714,206.056z   "
   id="path3211" />
	<path
   fill-rule="evenodd"
   clip-rule="evenodd"
   d="M226.702,213.056c-2.02,2.312-3.322,5.343-6.999,5.999   C221.722,216.742,223.026,213.712,226.702,213.056z"
   id="path3213" />
	<path
   fill-rule="evenodd"
   clip-rule="evenodd"
   d="M19.728,217.055c1,0,2,0,3,0c0,1,0,2,0,3   C20.546,220.236,19.546,219.237,19.728,217.055z"
   id="path3215" />
	<path
   fill-rule="evenodd"
   clip-rule="evenodd"
   d="M209.705,224.054c-0.91,8.43-17.859,9.466-24.997,14.998   c-0.849-5.07,7.171-5.014,11.998-6.999C202.011,229.872,207.098,227.448,209.705,224.054z"
   id="path3217" />
	<path
   fill-rule="evenodd"
   clip-rule="evenodd"
   d="M208.705,232.053c1.78,0.733,0.144,1.818,0,3   c-8.255,3.16-16.121,11.763-26.997,8.999C193.177,242.523,201.512,237.86,208.705,232.053z"
   id="path3219" />
	<path
   fill-rule="evenodd"
   clip-rule="evenodd"
   d="M175.708,244.052c-2.672,2.66-7.562,3.103-12.998,2.999   C165.601,244.61,171.158,244.833,175.708,244.052z"
   id="path3221" />
	<path
   fill-rule="evenodd"
   clip-rule="evenodd"
   d="M210.704,247.051c1.527,3.229-5.764,6.207-9.998,6.999   C203.745,251.424,207.933,249.947,210.704,247.051z"
   id="path3223" />
	<path
   fill-rule="evenodd"
   clip-rule="evenodd"
   d="M250.699,292.045c-8.242-2.09-6.553-14.11-10.998-19.997   c4.339-6.815-0.768-19.361,3.999-23.997c9.574-1.347,24.243,20.6,21.997,30.996C264.474,284.707,255.381,288.871,250.699,292.045z"
   id="path3225" />
	<path
   fill-rule="evenodd"
   clip-rule="evenodd"
   d="M145.712,253.05c1.445,0.24,2.324,8.229-1,7   C146.446,257.074,144.389,254.977,145.712,253.05z"
   id="path3227" />
	<path
   fill-rule="evenodd"
   clip-rule="evenodd"
   d="M160.71,253.05c1.887,5.113,1.226,12.772,6.999,13.999   c-0.611,9.276,0.78,16.551,1,24.996c-3.764,3.569-9.972,4.693-11.999,9.999c1.604,4.838,1.02,10.178-1,13.998   c-6.067,3.076-11.122,0.867-17.997,0c0.491-10.276,3.756-19.312,2-28.996c4.434-5.231,8.441-10.891,11.999-16.998   c0.833-6.165-2.866-7.8-3-12.998C152.831,255.836,155.971,253.644,160.71,253.05z"
   id="path3229" />
	<path
   fill-rule="evenodd"
   clip-rule="evenodd"
   d="M232.702,254.05c4.045,1.236-3.111,4.76-5,6.999c-2.039,2.42-1.978,6.271-4.999,6   C225.098,261.779,229.385,258.401,232.702,254.05z"
   id="path3231" />
	<path
   fill-rule="evenodd"
   clip-rule="evenodd"
   d="M144.712,265.049c1.786-0.282,2.052,0.945,1,1   c-7.198,9.461-6.154,25.842-9.999,37.995c-0.62,1.96-0.098,5.842-3,5.999C132.691,291.024,138.411,277.745,144.712,265.049z"
   id="path3233" />
	<path
   fill-rule="evenodd"
   clip-rule="evenodd"
   d="M221.703,270.048c0.208,6.461-3.736,14.174-4.999,21.997   c-1.494,9.252-0.86,18.776-6.999,24.997c-1.688-3.131,2.016-4.189,2.999-6.999C216.805,298.328,215.012,279.751,221.703,270.048z"
   id="path3235" />
	<path
   fill-rule="evenodd"
   clip-rule="evenodd"
   d="M112.716,285.046c4.64,1.864-2.909,2.47-4,3   c-5.854,2.845-16.444,7.202-19.998,12.998C89.283,292.268,104.414,289.416,112.716,285.046z"
   id="path3237" />
	<path
   fill-rule="evenodd"
   clip-rule="evenodd"
   d="M263.698,297.045c0.153,4.513-1.253,10.585,2.999,10.998   c-3.169,5.402-3.234,14.243-5.999,19.998c-1.698,3.534-4.749,8.703-9.999,7.999c-1.725-2.455,1.453-6.689,1-10.999   c-1.641-3.358-5.773-4.226-6.999-7.999c1.849-6.15,4.689-11.308,4.999-18.997C254.361,298.002,259.329,294.189,263.698,297.045z"
   id="path3239" />
	<path
   fill-rule="evenodd"
   clip-rule="evenodd"
   d="M84.72,302.044c1.393,2.111-4.062,5.899-6.999,6.999   C79.046,305.703,82.298,304.289,84.72,302.044z"
   id="path3241" />
	<path
   fill-rule="evenodd"
   clip-rule="evenodd"
   d="M86.72,306.044c6.805,4.61,0.225,19.194,3,25.996c-3.22-0.22-4.231,1.769-7.999,1   C84.336,325.162,88.041,314.724,86.72,306.044z"
   id="path3243" />
	<path
   fill-rule="evenodd"
   clip-rule="evenodd"
   d="M74.721,310.043c1.615-0.281,1.721,0.945,3,1c-2.707,5.128-5.22,12.922-3,19.997   c-1.289,1.378-4.343,0.99-6.999,1C69.079,323.732,72.581,317.568,74.721,310.043z"
   id="path3245" />
	<path
   fill-rule="evenodd"
   clip-rule="evenodd"
   d="M132.714,312.043c1.417,10.802,1.94,26.648-4,34.995   c-1.275-4.016,2.262-8.592,3-14.998C132.452,325.629,130.386,317.803,132.714,312.043z"
   id="path3247" />
	<path
   fill-rule="evenodd"
   clip-rule="evenodd"
   d="M207.705,318.042c-0.409,1.154-12.306-1.692-10.999-3   C197.629,314.119,205.662,315.442,207.705,318.042z"
   id="path3249" />
	<path
   fill-rule="evenodd"
   clip-rule="evenodd"
   d="M109.717,346.04c1.162-0.163,1.779,0.221,2,0.999   c-2.104,6.229-5.058,11.606-4.999,19.998c-2.409-0.409-2.174,1.826-5,1C98.729,358.892,108.154,353.923,109.717,346.04z"
   id="path3251" />
	<path
   fill-rule="evenodd"
   clip-rule="evenodd"
   d="M177.708,347.039c-1.364,9.694-7.336,17.634-6.999,25.997   c-3.601,0.268-4.819-1.847-7.999-2c1.107-4.195,5.729-4.626,6.999-9.998C171.191,354.771,169.234,346.94,177.708,347.039z"
   id="path3253" />
	<path
   fill-rule="evenodd"
   clip-rule="evenodd"
   d="M123.715,349.039c4.638,5.258-0.451,13.211,3,19.998   c-1.386,2.279-6.959,0.372-9.999,0.999C121.662,365.65,120.667,355.324,123.715,349.039z"
   id="path3255" />
	<path
   fill-rule="evenodd"
   clip-rule="evenodd"
   d="M194.707,352.039c1.162-0.163,1.778,0.221,1.999,1   c-3.76,5.905-7.424,11.907-7.999,20.997c-2.999,0-5.999,0-8.999,0C185.71,367.706,189.051,358.715,194.707,352.039z"
   id="path3257" />
	<path
   fill-rule="evenodd"
   clip-rule="evenodd"
   fill="#FFFFFF"
   d="M184.708,25.079c-5.284,1.398-2.854,8.456-3,11.999   c-0.254,6.185-0.252,13.184-1,17.998c-2.183,14.054,6.375,25.853-1,34.996c4.402-0.78-3.121,5.014,3,5.999   c-2.848,7.212,2.078,10.013-1,14.998c2.182,0.182,3.182-0.818,3-3c1.703,2.229,1.123,6.975-4,6.999c1.223,1.444,3.816,1.517,5,3   c2.352-0.315,0.593-4.74,3.999-4c-0.801,3.866-3.106,6.226-5.999,7.999c0.904,2.71,3.681-0.842,3.999-2   c1.594,4.949-5.555,9.76-7.999,13.998c4.197-1.135,6.146-4.52,7.999-7.999c2.497,0.692-1.855,2.667-1,5   c-11.074,6.796-19.24,17.067-32.995,16.998c-5.851-0.03-9.792-3.182-14.999-6c-6.169-3.338-16.62,1.457-25.997,0   c6.214,3.911,22.007-2.262,29.996,4c-4.013,2.178-6.34-0.665-9.999-1c-13.402-1.227-28.202,4.354-40.995,3   c-15.517-1.643-35.068-14.163-39.995-27.997c1.703-2.596,2.335,4.252,4.999,4c0.159-3.282-4.472-4.409-2-6.999   c2.487-0.154,3.095,1.571,5,2c0.163-1.162-0.221-1.779-1-2c7.205-1.576,12.429,7.14,18.998,6.999   c0.29,4.821,9.446,6.436,12.999,10.999c3.1,0.101,4.777-1.222,6.999-2c-8.037-8.294-17.48-15.183-28.997-19.998   c-0.216-8.215,0.753-15.245,2-21.998c8.514-3.11,18.891-8.303,17.998-16.998c-0.961-9.356-17.182-11.516-26.997-7.999   c-0.657-3.682,7.421-7.225,8.999-11.999c15.006-4.658,23.567-15.762,25.997-32.996c-1.286-2.589-2.067-3.142-5-2   c8.812-7.204,18.768-15.294,33.996-16.998c28.011-3.133,61.082,8.55,67.992,28.997C191.073,32.667,187.047,27.106,184.708,25.079z    M86.72,133.066c-1.266,3.36,3.916,5.289,1,6.999c-15.102,0.104-20.271-9.726-29.996-14.998   c6.437,8.961,17.095,15.909,30.996,16.998c1.895,0.148,2.202-1.05,4-1c4.405,0.124,11.532,3.686,14.998-1   c-4.999,0-9.999,0-14.998,0C89.474,138.977,88.945,135.173,86.72,133.066z M159.71,19.08c-1.733,2.933-4.689,4.643-8.999,5   c1.209,3.457,2.707,6.625,2,11.998c-1.805-1.304-9.925-2.521-8.999,2c6.633-3.911,10.344,7.126,6.999,12.999   c-1.976-7.874-9.825-11.051-15.998-9.999c-11.013,1.876-9.604,16.223-9.999,22.997c0.211-1.122,1.11-1.557,2-2   c2.519,4.814,5.316,9.348,12.999,8.999c0.046,0.16-0.061,1.994,0,2c7.454,0.684,14.408-7.913,12.999-17.998   c2.318,0.319,3.839-0.161,4.999-1c-1.007-5.659-1.817-11.514-3.999-15.998c2.479,2.521,5.18,4.819,5.999,8.999   c5.928-2.071,13.058-2.941,16.998-7C177.63,26.49,171.179,20.277,159.71,19.08z M99.718,51.076c-2.377-0.68-6.73-4.524-8.999-2   C93.295,49.557,97.943,53.107,99.718,51.076z M96.718,54.076c-3.466-0.533-5.324-2.675-8.999-3   C88.308,53.87,94.895,55.833,96.718,54.076z M82.72,57.075C73.116,55.83,77.423,60.137,82.72,57.075L82.72,57.075z M88.719,61.075   c0.701-3.701-3.505-2.494-5-4C84.064,59.73,86.344,60.45,88.719,61.075z M66.722,62.075c0.984,0.866,6.293,0.418,7.999-1   C71.935,59.884,68.637,59.93,66.722,62.075z M112.716,63.075C107.671,67.101,116.202,67.757,112.716,63.075L112.716,63.075z    M96.718,69.074c0.104-3.16-5.555-5.7-6.999-4C92.455,66.005,93.983,68.143,96.718,69.074z M137.713,81.072   c-2.524-5.987-7.212-10.921-12.999-15.998c2.996,4.775,6.918,12.469,5.999,17.998c4.337,0.386,1.533-4.815,3-4.999   C134.695,79.424,136.381,80.071,137.713,81.072z M95.718,74.073c4.907-0.76,9.812-1.521,11.999-5   C103.658,70.681,98.401,71.09,95.718,74.073z M87.719,105.069c5.273,2,5.239-7.579,2-7.999   C88.437,99.137,85.576,102.632,87.719,105.069z M79.72,109.069c-0.605-2.062,1.614-6.946-2-6   C76.113,105.22,74.095,109.869,79.72,109.069z M99.718,114.068c4.101,1.168,4.017-6.952,1-6.999   C100.033,109.308,97.713,112.079,99.718,114.068z M110.716,118.068c0.798-1.869,1.671-3.662,2-6   C108.702,112.522,106.11,116.797,110.716,118.068z M91.719,121.067c1.767-2.06,1.449-8.099-3-7   C88.854,117.266,87.733,121.72,91.719,121.067z M168.709,125.067c4.925-1.741,8.296-5.036,11.998-7.999   C176.841,116.185,171.637,121.763,168.709,125.067z M109.717,130.066c-0.178-2.982,3.844-6.12,0-6.999   C108.136,124.595,104.016,129.812,109.717,130.066z M163.709,135.065c6.711,1.23,18.177-6.373,17.998-11.999   C177.297,128.655,171.106,132.462,163.709,135.065z M145.712,142.064c5.246,0.877,13.562-0.146,16.998-4   C159.042,137.688,151.617,141.422,145.712,142.064z"
   id="path3259" />
	<path
   fill-rule="evenodd"
   clip-rule="evenodd"
   d="M232.702,169.061c8.833,8.553,26.41,17.718,20.997,33.996   c-3.259-8.073-6.784-15.879-14.998-18.998c0.483,18.578,14.51,37.4,11.998,58.993c8.03,5.118,23.136-22.51,28.997-5   c2.322,6.939-3.892,22.662-5,33.996c-2.88,29.461-0.559,56.421-18.997,71.991c-14.055,11.868-37.125,9.338-46.994,25.996   c-12.404,7.922-46.82,20.156-53.993-0.999c-4.611,7.283-36.911,17.013-51.994,10.998c-18.844-7.515-4.687-31.942,4.999-40.995   c-17.134,7.766-46.119,11.488-47.994-9.998c-1.302-14.915,9.982-26.182,15.998-34.996c12.664-7.333,28.671-11.323,40.995-18.997   c-0.469-12.111-0.058-18.513,1-29.997c-6.812,3.521-0.088,20.576-7,23.997c-5-4.787-0.795-17.152-1-25.996   c-2.779,8.886-2.464,20.866-3,31.996c-5.003-0.631-2.831-7.956-3-12.999c-0.289-8.611,0.013-18.564,2-24.997   c-4.434-4.564-9.053-8.944-15.998-10.998c-3.639,1.026-6.185,3.147-9.999,3.999c-11.697-3.301-11.536-18.46-14.998-29.996   c-15.658,6.86-23.789,24.196-41.995,26.997c-6.132,0.943-16.638-4.826-18.998-7.999c-12.19-16.394,9.065-34.905,12.999-50.994   c10.457-10.27,24.292-22.801,43.994-21.998c7.563,0.309,14.534,3.749,22.997,4c-4.342-7.179-12.935-5.825-18.998-9.999   c-26.789-18.443-18.135-73.322,7.999-88.989c4.287-18.71,14.863-31.132,21.998-46.994c15.381,2.35,26.042-4.93,43.994-4   c25.067,1.299,51.376,9.202,56.993,32.996c8.934,3.065,14.062,9.935,19.998,15.998c4.706,17.958,10.267,35.061,12.998,54.993   c1.387,1.764,5.166-2.493,7.999,0c7.347,9.229,0.235,23.134-6.999,26.997c2.784,4.882,4.769,10.562,8.999,13.999   c-3.582,4.187-7.581-6.562-11.999-7.999c-2.752,3.58-5.911,6.754-9.998,8.999c1.854,2.812,3.258,6.074,4.999,8.999   c18.036,6.627,44.082,5.245,53.993,19.998c-4.049-0.284-6.95-1.716-10.999-2c1.633,3.072,10.535,2.951,8,7   C259.913,175.846,245.03,173.731,232.702,169.061z M193.707,31.079c-6.91-20.446-39.98-32.13-67.992-28.997   c-15.228,1.704-25.184,9.794-33.996,16.998c2.932-1.142,3.714-0.589,5,2c-2.43,17.234-10.99,28.338-25.997,32.996   c-1.578,4.773-9.656,8.316-8.999,11.999c9.815-3.517,26.036-1.357,26.997,7.999c0.893,8.695-9.484,13.887-17.998,16.998   c-1.247,6.753-2.216,13.782-2,21.998c11.517,4.815,20.959,11.703,28.997,19.998c-2.222,0.777-3.899,2.1-6.999,2   c-3.553-4.563-12.708-6.178-12.999-10.999c-6.569,0.141-11.792-8.575-18.998-6.999c0.779,0.221,1.163,0.837,1,2   c-1.904-0.429-2.512-2.154-5-2c-2.472,2.59,2.158,3.717,2,6.999c-2.664,0.252-3.296-6.596-4.999-4   c4.927,13.833,24.478,26.354,39.995,27.997c12.793,1.354,27.593-4.226,40.995-3c3.659,0.334,5.986,3.177,9.999,1   c-7.989-6.262-23.782-0.088-29.996-4c9.377,1.457,19.827-3.338,25.997,0c5.207,2.817,9.148,5.97,14.999,6   c13.755,0.069,21.921-10.202,32.995-16.998c-0.855-2.332,3.497-4.308,1-5c-1.854,3.479-3.802,6.864-7.999,7.999   c2.444-4.238,9.593-9.049,7.999-13.998c-0.318,1.158-3.095,4.709-3.999,2c2.893-1.773,5.198-4.133,5.999-7.999   c-3.406-0.74-1.647,3.685-3.999,4c-1.184-1.483-3.777-1.556-5-3c5.123-0.024,5.703-4.771,4-6.999c0.182,2.181-0.818,3.181-3,3   c3.078-4.985-1.848-7.786,1-14.998c-6.121-0.985,1.402-6.779-3-5.999c7.375-9.143-1.183-20.942,1-34.996   c0.748-4.814,0.746-11.813,1-17.998c0.146-3.542-2.284-10.601,3-11.999C187.047,27.106,191.073,32.667,193.707,31.079z    M79.72,44.077c1.996-2.371,9.822-4.131,7.999-6.999c-0.415,2.221-5.482,0.96-4.999-1c-1.267-3.048,3.418-5.091,1-5.999   C81.563,33.279,77.288,39.611,79.72,44.077z M51.724,113.068c2.287-2.379,6.434-2.898,10.999-3c0.785-6.214,1.387-12.611,2-18.998   c-4.563-5.036-6.549-14.777-6.999-20.997c-2.02,6.657-6.607,16.042-5,22.997c-0.299-1.625,1.35-2.697,2-1   c0.301,2.635-1.385,3.282-4,3C51.783,102.076,47.491,108.762,51.724,113.068z M231.702,106.069c-4.695,3.033-0.646,10.928-1,15.998   c-0.229,3.285-3.058,3.898-1,6c5.575-3.883,11.189-13.379,5.999-21.997C234.368,106.069,233.035,106.069,231.702,106.069z    M184.708,138.065c3.383-0.384,1.573,4.426,5.999,3c-0.595-2.072,1.236-6.569-1-7C188.425,135.784,184.947,135.305,184.708,138.065   z M206.705,151.063c5.661-4.013,14.939-9.712,15.998-14.998C218.048,141.743,211.662,145.688,206.705,151.063z M184.708,166.062   c2.383,2.089,4.407-2.242,6.999-3c6.229-20.744-15.13-29.385-25.997-13.998c5.93,6.735,11.519,13.811,11.999,25.997   C180.4,172.419,182.201,168.888,184.708,166.062z M68.722,151.063c-3.973-3.264-10.139-3.146-14.998-2   c5.574,10.094,16.934,19.723,14.998,33.996c-2.63-14.034-9.769-23.561-16.998-32.996c-8.282-0.949-11.463,3.202-15.998,6   c6.575,4.431,16.039,11.282,14.998,19.998c-2.442-12.553-22.499-25.017-28.997-7.999c4.788,2.311,11.158,5.973,14.998,9.999   c2.347,2.46,6.152,6.767,5,9.999c-7.064-5.934-10.815-15.182-21.997-16.998c-1.253,3.414-3.838,5.494-5,8.999   c14.15,6.514,24.194,17.134,32.996,28.996c6.082-2.879-1.376-10.729,0-13.998c1.959,2.706,4.167,5.164,4,9.999   c2.983-0.017,3.399-2.6,5.999-3c0.837-9.169-2.284-14.38-4-20.998c5.044,3.622,4.042,13.289,6.999,18.998   c0.456-3.211,3.891-3.441,6-4.999c1.957-4.233,0.332-6.533,3-8.999c0.595,2.071-1.236,6.568,1,6.999   C85.147,190.332,75.371,156.526,68.722,151.063z M131.714,166.062c6.108-1.592,22.631-13.806,23.997-15.998   c-0.093,0.15-0.858-0.12-0.999,0c-20.014-0.817-37.238-4.223-57.993,3C106.438,160.538,116.344,170.068,131.714,166.062z    M210.704,152.063c2.595-0.183,6.697,3.195,7.999,1c-1.166-1.5-2.888-2.445-2.999-4.999   C212.772,148.132,211.99,150.35,210.704,152.063z M80.72,168.062c-3.703,5.996,1.328,12.745,0,17.998   c-1.484,5.868-6.193,5.186-8.999,9.999c2.527,8.479,4.523,22.797,6,28.996c-6.412-6.253-3.54-21.79-7.999-29.996   c-4.471,0.867-1.98,6.294-1,11.998c1.947,11.326,5.188,24.176,16.998,18.998c9.556-14.023,8.042-44.92,4-63.992   c-2.236-3.066-7.818-7.096-6.999-9.999c-4.392,1.334-8.264-2.992-10.999,0C76.591,155.526,76.439,164.01,80.72,168.062z    M89.719,151.063c4.762,21.065,8.341,52.965,0,72.991c3.6-0.267,4.819,1.847,7.999,2c2.247,1.157,7.176,8.93,7.999,4.999   c2.188-1.811,0.17-7.829,2-9.998c-1.707-0.96-2.191-3.142-3-5c-0.755-15.087,4.097-24.565,11.999-30.996   c0.826-2.826-1.409-2.59-1-4.999c3.243-3.772,12.083-7.227,11.999-10.999C110.371,171.736,101.825,156.958,89.719,151.063z    M157.71,205.057c9.515-8.11,21.751-23.835,13.998-39.996c-3.927,3.406,0.539,15.204-6.999,14.999   c3.012-4.679,2.396-8.054,1-12.999c-1.742-0.924-5.366,0.034-4.999-3c-5.464-0.462-8.908,5.295-11.999,4   c2.333-8,17.475-3.19,19.998-10.999c-3.612-1.721-6.855-3.81-9.999-6c-13.122,10.542-30.151,17.176-39.995,30.996   c6.822-2.511,10.908-7.757,17.998-9.999c1.556-2.04,3.497-7.002,5.999-5c-11.099,14.232-37.178,18.812-34.996,42.995   c0.076-6.59,4.751-8.581,6-13.998c6.231-4.53,12.859-10.037,18.998-13.999c2.779-1.793,6.217-4.275,8.999-4   c-16.101,11.105-30.759,29.575-33.996,52.993c-0.417,3.022-1.542,14.317,0,9.999c3.062-24.936,11.579-44.414,29.997-53.993   c-3.092,11.525-12.103,18.619-16.998,28.996c-6.431,13.633-10.419,31.202-10.999,49.994c3.783-0.51,1.767-5.27,2-6.999   c3.625-26.942,11.957-49.979,27.997-63.992c1.681-3.985,2.233-9.099,7-9.999c-9.262,17.403-17.114,41.544-15.999,65.992   c0-1.667,0-3.333,0-5c4.725-18.957,8.201-44.975,17.998-54.993c-5.079,12.936-10.831,28.096-13.998,43.995   c-1.311,6.581-1.355,13.796-3,19.997c-2.037,7.682-7.637,14.368-5.999,21.997c5.391-5.287,5.564-14.172,7.999-21.997   c5.048-16.227,7.675-32.508,12.999-46.994c2.465-6.708,4.896-14.931,9.998-17.998c-8.133,15.258-13.357,36.058-17.998,53.994   c-1.708,6.604-4.369,12.796-4,18.997c2.103-8.548,4.953-17.13,7.999-23.997c6.952-15.67,9.383-37.369,21.997-48.994   C162.757,194.79,156.472,200.461,157.71,205.057z M83.72,154.063c3.421-0.422,3.005,2.995,5,4c0.725-3.058-1.725-2.941-1-5.999   C85.44,151.784,83.961,152.304,83.72,154.063z M269.697,171.061c-19.46-9.203-45.553-11.773-66.992-18.998   c-2.816,1.515-1.217,7.448-4.999,7.999c-2.83,0.164,0.831-6.164-2-6c-2.725,3.019,0.692,5.958,1,8.999   c-1.376,0.043-2.195-0.471-2.999-1c6.514,9.74,21.299,8.575,32.995,12.999c2.913,1.102,5.619,4.147,8.999,5.999   c8.295,4.544,13.381,5.72,16.998,12.999c-4.838-13.496-21.356-20.634-26.996-29.996c9.658,2.346,19.616,9.705,29.996,7.999   c-7.69-3.12-12.389-2.042-14.998-7C251.573,165.195,261.725,171.357,269.697,171.061z M246.7,243.052   c0.319-5.249-1.239-3.6,2-9.999c-1.812-16.702-10.343-31.268-12.999-49.994c-6.557-4.775-14.942-7.721-24.997-8.999   c-1.33,3.002-1.016,7.649-0.999,11.999c-7.392,6.788-1.148,23.387-6,30.996c-9.172,4.493-16.215,11.115-22.997,17.998   c-2.682-1.651-4.426-4.239-6.999-5.999c-5.729,1.903-7.851,7.978-13.998,7.998c-4.472,0.016-6.449-5.058-11.998-4.999   c0.074,1.742-0.224,3.109-1,4c1.188,2.811,9.465-1.467,8.998,2.999c-4.737,0.738-6.874-1.124-10.998-1c0.725,3.059-1.725,2.941-1,6   c4.299,1.367,11.27,0.062,14.998,1.999c-6.037,4.712-17.226-5.083-17.998,3c3.016,1.317,8.565,0.101,10.999,2   c-2.964,2.897-8.232-0.384-11.999,0c-1.076,6.095-4.407,13.553-4,17.997c-0.872-2.956-0.794,3.023-4,1   c-4.204,11.694-8.263,24.968-8.999,38.995c-0.203,3.874,0.755,8.298,0,11.999c-2.415,11.835-12.676,17.554-18.998,24.997   c0.401,9.066-6.757,10.573-7.999,17.997c2.941,4.392,3.488,11.177,8.999,12.999c3.666-2.229-3.515-4.62,0-7   c8.6-2.46,9.772,4.577,19.998,3c0.228,1.771-1.008,5.008,2,4c5.14-1.193,8.564-4.102,12.999-6c0.17,1.496-0.357,3.69,1,4   c17.46-3.007,17.4-25.056,22.997-41.995c0.713-2.156,2.646-3.437,3-4.999c1.688-7.462,1.415-17.149,2-24.997   c1.283-17.214,6.457-34.298,8.999-49.994c0.924-5.707-0.584-11.928,3.999-15.998c0.012,5.746-3.378,15.325,0,22.998   c6.491,1.464,10.312-4.983,13.998-3c-3.974,2.358-7.86,4.805-13.998,4.999c0.981,4.087-0.11,4.041,0,8.999   c11.177-0.488,16.712-6.618,24.997-9.999c-6.45,5.882-14.269,10.396-24.997,11.999c-1.288,5.984,2.749,11.875,1,14.998   c-4.569-10.794-0.087-22.617-3.999-31.996c-2.875,16.79-7.302,32.027-7.999,50.994c2.782,6.899,19.311,13.906,23.997,3.999   c-7.487-2.188-9.503-15.149-9.999-20.997c5.04,4.958,2.23,17.767,10.998,18.997c3.522-4.811,2.063-14.601,7.999-16.998   c4.032-24.203,15.77-42.931,37.995-47.993c1.624-0.37,6.548,1.564,6-2C247.643,242.662,247.55,243.236,246.7,243.052z    M22.728,188.059c-4.525-0.141-4.883-4.449-9.999-4c-6.364,7.511-13.786,19.872-7,31.996c0.033-6.966,1.529-12.47,5-15.998   c0.775,4.842-3.752,13.712-1,20.998c11.637,9.034,29.107-1.062,34.996-9.999c-4.68-9.318-12.215-15.781-20.997-20.998   c-5.873,4.933-7.759,17.58-6.999,25.997c-1.322,0.012-0.914,1.753-2,2c-1.485-1.181-4.467-0.865-4-4c1.904,0.43,2.512,2.154,5,2   C12.163,204.229,18.113,194.871,22.728,188.059z M108.717,219.055c0.731-11.94,10.925-19.73,12.999-26.997   C115.066,198.08,106.682,207.68,108.717,219.055z M111.716,237.052c2.371-18.962,15.378-32.612,20.998-44.994   C121.145,201.822,110.804,218.14,111.716,237.052z M136.713,205.057c-1.298-2.48,2.23-4.853,0-5   C135.559,201.56,133.204,204.268,136.713,205.057z M116.716,242.052c3.727,0.939,5.556,3.776,10.999,2.999   c1.682-12.982,4.032-25.298,6.999-36.995c-1.427-0.239-1.687-1.646-3-2C125.318,216.659,119.889,228.228,116.716,242.052z    M241.7,349.039c32.535-12.568,26.865-43.316,31.996-84.989c1.548-12.572,7.625-27.483-0.999-28.996   c-5.859-1.027-9.476,10.282-16.998,11.998c-3.978,0.907-7.821-1.91-14.998-1c-16.171,2.052-26.18,17.657-30.996,29.997   c-3.477,8.904-3.737,18.229-6,26.996c-4.071,15.782-20.797,15.147-29.996,23.997c-5.342,5.139-20.309,36.103-15.998,44.994   c2.345,4.836,12.399,7.037,17.998,6.999c9.45-0.064,22.104-4.093,28.996-8.999c2.154-1.532,4.011-5.096,5.999-6.999   c2.454-2.349,4.696-4.091,7-5.999C226.834,354.365,234.559,351.797,241.7,349.039z M107.717,337.041   c4.426-5.573,8.233-11.766,12.999-16.998c0.048-15.617,1.735-29.595,5.999-40.995c-1.912-0.421-4.304-0.362-4-2.999   c2.123-8.877,4.883-17.115,5-27.997c-3.468,0.802-3.843-1.489-6.999-1c-2.007,7.574-2.965,19.549-1,27.997   c-10.182,10.148-29.268,11.394-40.995,19.997c-3.66,8.012-15.817,12.837-13.999,22.997c1.491-3.842,1.452-9.213,6-9.999   c-0.127,5.539-3.622,7.711-3,13.999c-1.481,3.228-5.168-0.419-5,2.999c0,2.667,0,5.333,0,7.999   c6.117-0.098,7.987,9.317,11.999,7.999c-1.813,0.031-3.479-5.03-2-4.999c5.392,0.245,9.109,1.771,13.999,0   c1.151,1.182,1.131,3.534,1,5.999c4.902-5.43,11.759-8.905,20.998-9.999C109.573,334.374,105.22,336.349,107.717,337.041z    M169.709,321.042c-0.021,3.036-3.237,8.018-1,9.998c0.187-5.833,10.357-6.946,8.999-10.998c-2.063,2.708-0.875-2.286-2-2   C174.861,320.194,173.246,321.58,169.709,321.042z"
   id="path3261" />
	<path
   fill-rule="evenodd"
   clip-rule="evenodd"
   fill="#FFFFFF"
   d="M83.72,30.079c2.419,0.908-2.266,2.951-1,5.999   c-0.483,1.96,4.584,3.221,4.999,1c1.823,2.868-6.003,4.628-7.999,6.999C77.288,39.611,81.563,33.279,83.72,30.079z"
   id="path3263" />
	<path
   fill-rule="evenodd"
   clip-rule="evenodd"
   fill="#FFFFFF"
   d="M50.724,95.07c2.615,0.282,4.301-0.365,4-3   c-0.65-1.697-2.299-0.625-2,1c-1.608-6.956,2.979-16.34,5-22.997c0.45,6.22,2.436,15.961,6.999,20.997   c-0.612,6.387-1.214,12.784-2,18.998c-4.564,0.102-8.712,0.62-10.999,3C47.491,108.762,51.783,102.076,50.724,95.07z    M51.724,106.069c3.187,0.097,4.403-7.514,1-7.999C53.305,101.775,49.64,103.867,51.724,106.069z M56.723,89.071   c-0.421-1.912-0.362-4.304-3-4C53.445,87.684,53.386,90.076,56.723,89.071z M61.723,104.069c-0.508-2.491,0.033-6.032-3-5.999   C58.974,102.149,56.183,104.378,61.723,104.069z"
   id="path3265" />
	<path
   fill-rule="evenodd"
   clip-rule="evenodd"
   fill="#FFFFFF"
   d="M222.703,136.065c-1.059,5.286-10.337,10.985-15.998,14.998   C211.662,145.688,218.048,141.743,222.703,136.065z"
   id="path3267" />
	<path
   fill-rule="evenodd"
   clip-rule="evenodd"
   fill="#FFFFFF"
   d="M96.718,153.063c20.755-7.223,37.979-3.817,57.993-3   c0.141-0.12,0.906,0.15,0.999,0c-1.365,2.192-17.888,14.406-23.997,15.998C116.344,170.068,106.438,160.538,96.718,153.063z"
   id="path3269" />
	<path
   fill-rule="evenodd"
   clip-rule="evenodd"
   fill="#FFFFFF"
   d="M127.714,169.061c0.084,3.772-8.755,7.227-11.999,10.999   c-0.409,2.409,1.826,2.173,1,4.999c-7.901,6.431-12.754,15.909-11.999,30.996c0.808,1.858,1.293,4.04,3,5   c-1.83,2.169,0.189,8.188-2,9.998c-0.823,3.931-5.752-3.842-7.999-4.999c-3.18-0.153-4.399-2.267-7.999-2   c8.341-20.025,4.762-51.926,0-72.991C101.825,156.958,110.371,171.736,127.714,169.061z"
   id="path3271" />
	<path
   fill-rule="evenodd"
   clip-rule="evenodd"
   fill="#FFFFFF"
   d="M164.709,190.058c-12.614,11.625-15.045,33.324-21.997,48.994   c-3.046,6.867-5.896,15.449-7.999,23.997c-0.37-6.201,2.291-12.394,4-18.997c4.641-17.937,9.865-38.736,17.998-53.994   c-5.103,3.067-7.533,11.29-9.998,17.998c-5.323,14.486-7.95,30.768-12.999,46.994c-2.435,7.825-2.608,16.71-7.999,21.997   c-1.638-7.629,3.962-14.315,5.999-21.997c1.644-6.201,1.688-13.416,3-19.997c3.167-15.899,8.919-31.06,13.998-43.995   c-9.796,10.019-13.272,36.036-17.998,54.993c0,1.667,0,3.333,0,5c-1.115-24.448,6.736-48.589,15.999-65.992   c-4.766,0.9-5.319,6.014-7,9.999c-16.04,14.013-24.371,37.05-27.997,63.992c-0.232,1.729,1.784,6.489-2,6.999   c0.58-18.792,4.567-36.361,10.999-49.994c4.895-10.377,13.906-17.471,16.998-28.996c-18.417,9.579-26.935,29.058-29.997,53.993   c-1.542,4.318-0.417-6.977,0-9.999c3.237-23.418,17.895-41.888,33.996-52.993c-2.782-0.275-6.22,2.206-8.999,4   c-6.138,3.962-12.766,9.468-18.998,13.999c-1.249,5.417-5.923,7.408-6,13.998c-2.183-24.182,23.896-28.762,34.996-42.995   c-2.502-2.002-4.443,2.96-5.999,5c-7.09,2.242-11.176,7.488-17.998,9.999c9.844-13.82,26.873-20.455,39.995-30.996   c3.144,2.189,6.387,4.279,9.999,6c-2.523,7.809-17.665,2.999-19.998,10.999c3.091,1.295,6.535-4.462,11.999-4   c-0.367,3.034,3.257,2.076,4.999,3c1.396,4.945,2.012,8.319-1,12.999c7.538,0.205,3.072-11.593,6.999-14.999   c7.753,16.16-4.483,31.885-13.998,39.996C156.472,200.461,162.757,194.79,164.709,190.058z"
   id="path3273" />
	<path
   fill-rule="evenodd"
   clip-rule="evenodd"
   fill="#FFFFFF"
   d="M240.701,165.062c2.609,4.958,7.308,3.879,14.998,7   c-10.38,1.706-20.338-5.653-29.996-7.999c5.64,9.362,22.158,16.5,26.996,29.996c-3.617-7.279-8.703-8.454-16.998-12.999   c-3.38-1.852-6.086-4.897-8.999-5.999c-11.696-4.423-26.481-3.259-32.995-12.999c0.804,0.529,1.623,1.043,2.999,1   c-0.308-3.042-3.725-5.98-1-8.999c2.831-0.164-0.83,6.164,2,6c3.782-0.551,2.183-6.484,4.999-7.999   c21.439,7.224,47.532,9.794,66.992,18.998C261.725,171.357,251.573,165.195,240.701,165.062z"
   id="path3275" />
	<path
   fill-rule="evenodd"
   clip-rule="evenodd"
   fill="#FFFFFF"
   d="M247.7,242.052c0.548,3.564-4.376,1.63-6,2   c-22.226,5.062-33.963,23.79-37.995,47.993c-5.936,2.397-4.477,12.188-7.999,16.998c-8.768-1.23-5.958-14.039-10.998-18.997   c0.496,5.848,2.512,18.81,9.999,20.997c-4.687,9.907-21.215,2.9-23.997-3.999c0.697-18.967,5.124-34.204,7.999-50.994   c3.912,9.379-0.57,21.202,3.999,31.996c1.749-3.123-2.288-9.014-1-14.998c10.729-1.604,18.547-6.117,24.997-11.999   c-8.285,3.381-13.82,9.511-24.997,9.999c-0.11-4.958,0.981-4.912,0-8.999c6.138-0.194,10.024-2.641,13.998-4.999   c-3.686-1.983-7.507,4.464-13.998,3c-3.378-7.673,0.012-17.252,0-22.998c-4.583,4.07-3.075,10.291-3.999,15.998   c-2.542,15.696-7.716,32.78-8.999,49.994c-0.585,7.848-0.312,17.535-2,24.997c-0.354,1.562-2.287,2.843-3,4.999   c-5.597,16.939-5.536,38.988-22.997,41.995c-1.357-0.31-0.83-2.504-1-4c-4.435,1.898-7.858,4.807-12.999,6   c-3.007,1.008-1.771-2.229-2-4c-10.226,1.577-11.397-5.46-19.998-3c-3.515,2.38,3.666,4.771,0,7   c-5.511-1.822-6.058-8.607-8.999-12.999c1.242-7.424,8.4-8.931,7.999-17.997c6.322-7.443,16.583-13.162,18.998-24.997   c0.755-3.701-0.203-8.125,0-11.999c0.736-14.027,4.795-27.301,8.999-38.995c3.206,2.023,3.127-3.956,4-1   c-0.407-4.444,2.924-11.902,4-17.997c3.766-0.384,9.035,2.897,11.999,0c-2.434-1.899-7.983-0.683-10.999-2   c0.771-8.083,11.96,1.712,17.998-3c-3.729-1.937-10.699-0.632-14.998-1.999c-0.725-3.059,1.725-2.941,1-6   c4.124-0.124,6.261,1.738,10.998,1c0.467-4.466-7.811-0.188-8.998-2.999c0.776-0.891,1.074-2.258,1-4   c5.549-0.059,7.526,5.015,11.998,4.999c6.147-0.021,8.27-6.095,13.998-7.998c2.573,1.76,4.317,4.348,6.999,5.999   c6.782-6.883,13.825-13.505,22.997-17.998c4.852-7.609-1.392-24.208,6-30.996c-0.017-4.35-0.331-8.996,0.999-11.999   c10.055,1.278,18.44,4.224,24.997,8.999c2.656,18.726,11.187,33.292,12.999,49.994c-3.239,6.399-1.681,4.75-2,9.999   C247.55,243.236,247.643,242.662,247.7,242.052z M219.703,219.055c3.677-0.656,4.979-3.687,6.999-5.999   C223.026,213.712,221.722,216.742,219.703,219.055z M196.706,232.053c-4.827,1.985-12.847,1.929-11.998,6.999   c7.138-5.532,24.087-6.568,24.997-14.998C207.098,227.448,202.011,229.872,196.706,232.053z M181.708,244.052   c10.876,2.764,18.742-5.839,26.997-8.999c0.144-1.182,1.78-2.267,0-3C201.512,237.86,193.177,242.523,181.708,244.052z    M162.71,247.051c5.436,0.104,10.326-0.339,12.998-2.999C171.158,244.833,165.601,244.61,162.71,247.051z M200.706,254.05   c4.234-0.792,11.525-3.77,9.998-6.999C207.933,249.947,203.745,251.424,200.706,254.05z M144.712,260.05   c3.324,1.229,2.445-6.76,1-7C144.389,254.977,146.446,257.074,144.712,260.05z M148.711,257.05c0.134,5.198,3.833,6.833,3,12.998   c-3.558,6.107-7.564,11.767-11.999,16.998c1.757,9.685-1.508,18.72-2,28.996c6.875,0.867,11.93,3.076,17.997,0   c2.02-3.82,2.604-9.16,1-13.998c2.027-5.306,8.235-6.43,11.999-9.999c-0.22-8.445-1.611-15.72-1-24.996   c-5.773-1.227-5.112-8.886-6.999-13.999C155.971,253.644,152.831,255.836,148.711,257.05z M132.714,310.043   c2.902-0.157,2.379-4.039,3-5.999c3.845-12.153,2.801-28.534,9.999-37.995c1.052-0.055,0.786-1.282-1-1   C138.411,277.745,132.691,291.024,132.714,310.043z M131.714,332.041c-0.738,6.406-4.275,10.982-3,14.998   c5.939-8.347,5.417-24.193,4-34.995C130.386,317.803,132.452,325.629,131.714,332.041z M101.718,368.037   c2.826,0.826,2.59-1.409,5-1c-0.059-8.392,2.895-13.77,4.999-19.998c-0.221-0.778-0.837-1.162-2-0.999   C108.154,353.923,98.729,358.892,101.718,368.037z M116.716,370.036c3.039-0.627,8.612,1.28,9.999-0.999   c-3.451-6.787,1.639-14.74-3-19.998C120.667,355.324,121.662,365.65,116.716,370.036z"
   id="path3277" />
	<path
   fill-rule="evenodd"
   clip-rule="evenodd"
   fill="#FFFFFF"
   d="M15.729,216.055c-2.487,0.154-3.095-1.57-5-2   c-0.468,3.135,2.514,2.819,4,4c1.086-0.247,0.678-1.988,2-2c-0.76-8.417,1.126-21.064,6.999-25.997   c8.782,5.217,16.317,11.68,20.997,20.998c-5.888,8.938-23.358,19.033-34.996,9.999c-2.752-7.286,1.775-16.156,1-20.998   c-3.471,3.528-4.966,9.032-5,15.998c-6.787-12.124,0.635-24.484,7-31.996c5.115-0.45,5.473,3.858,9.999,4   C18.113,194.871,12.163,204.229,15.729,216.055z M33.726,214.055c-4.538-1.461-4.176-7.821-4-13.998   c-5.446,3.202-2.213,14.645-2,20.998c1,0,2,0,3,0C31.82,218.816,32.382,216.044,33.726,214.055z M22.728,220.055c0-1,0-2,0-3   c-1,0-2,0-3,0C19.546,219.237,20.546,220.236,22.728,220.055z"
   id="path3279" />
	<path
   fill-rule="evenodd"
   clip-rule="evenodd"
   fill="#FFFFFF"
   d="M121.715,192.058c-2.073,7.267-12.268,15.057-12.999,26.997   C106.682,207.68,115.066,198.08,121.715,192.058z"
   id="path3281" />
	<path
   fill-rule="evenodd"
   clip-rule="evenodd"
   fill="#FFFFFF"
   d="M132.714,192.058c-5.62,12.382-18.627,26.032-20.998,44.994   C110.804,218.14,121.145,201.822,132.714,192.058z"
   id="path3283" />
	<path
   fill-rule="evenodd"
   clip-rule="evenodd"
   fill="#FFFFFF"
   d="M136.713,200.057c2.23,0.147-1.298,2.52,0,5   C133.204,204.268,135.559,201.56,136.713,200.057z"
   id="path3285" />
	<path
   fill-rule="evenodd"
   clip-rule="evenodd"
   fill="#FFFFFF"
   d="M217.704,357.038c-2.304,1.908-4.546,3.65-7,5.999   c-1.988,1.903-3.845,5.467-5.999,6.999c-6.893,4.906-19.546,8.935-28.996,8.999c-5.599,0.038-15.653-2.163-17.998-6.999   c-4.311-8.892,10.656-39.855,15.998-44.994c9.199-8.85,25.925-8.215,29.996-23.997c2.263-8.767,2.523-18.092,6-26.996   c4.816-12.34,14.825-27.945,30.996-29.997c7.177-0.91,11.021,1.907,14.998,1c7.522-1.716,11.139-13.025,16.998-11.998   c8.624,1.513,2.547,16.424,0.999,28.996c-5.131,41.673,0.539,72.421-31.996,84.989   C234.559,351.797,226.834,354.365,217.704,357.038z M196.706,315.042c-1.307,1.308,10.59,4.154,10.999,3   C205.662,315.442,197.629,314.119,196.706,315.042z M265.697,279.047c2.246-10.396-12.423-32.343-21.997-30.996   c-4.767,4.636,0.34,17.182-3.999,23.997c4.445,5.887,2.756,17.907,10.998,19.997C255.381,288.871,264.474,284.707,265.697,279.047z    M222.703,267.049c3.021,0.271,2.96-3.58,4.999-6c1.889-2.239,9.045-5.763,5-6.999   C229.385,258.401,225.098,261.779,222.703,267.049z M212.704,310.043c-0.983,2.81-4.687,3.868-2.999,6.999   c6.139-6.221,5.505-15.745,6.999-24.997c1.263-7.823,5.207-15.536,4.999-21.997C215.012,279.751,216.805,298.328,212.704,310.043z    M249.699,298.045c-0.31,7.689-3.15,12.847-4.999,18.997c1.226,3.773,5.358,4.641,6.999,7.999c0.453,4.31-2.725,8.544-1,10.999   c5.25,0.704,8.301-4.465,9.999-7.999c2.765-5.755,2.83-14.596,5.999-19.998c-4.252-0.413-2.846-6.485-2.999-10.998   C259.329,294.189,254.361,298.002,249.699,298.045z M180.708,343.04c2.477-6.601,6.134-12.01,11.999-15.998   c3.556-2.418,9.921-2.751,9.998-6.999C193.488,325.162,180.246,331.573,180.708,343.04z M169.709,361.038   c-1.271,5.372-5.892,5.803-6.999,9.998c3.18,0.153,4.398,2.268,7.999,2c-0.337-8.363,5.635-16.303,6.999-25.997   C169.234,346.94,171.191,354.771,169.709,361.038z M179.708,374.036c3,0,6,0,8.999,0c0.575-9.09,4.239-15.092,7.999-20.997   c-0.221-0.779-0.837-1.163-1.999-1C189.051,358.715,185.71,367.706,179.708,374.036z"
   id="path3287" />
	<path
   fill-rule="evenodd"
   clip-rule="evenodd"
   fill="#FFFFFF"
   d="M108.717,332.041c-9.238,1.094-16.096,4.569-20.998,9.999   c0.132-2.465,0.151-4.817-1-5.999c-4.889,1.771-8.606,0.245-13.999,0c-1.479-0.031,0.187,5.03,2,4.999   c-4.012,1.318-5.881-8.097-11.999-7.999c0-2.666,0-5.332,0-7.999c-0.168-3.418,3.518,0.229,5-2.999   c-0.622-6.288,2.872-8.46,3-13.999c-4.547,0.786-4.509,6.157-6,9.999c-1.819-10.16,10.339-14.985,13.999-22.997   c11.727-8.604,30.813-9.849,40.995-19.997c-1.965-8.448-1.007-20.423,1-27.997c3.156-0.489,3.531,1.802,6.999,1   c-0.117,10.882-2.877,19.12-5,27.997c-0.304,2.637,2.087,2.578,4,2.999c-4.264,11.4-5.951,25.378-5.999,40.995   c-4.766,5.232-8.572,11.425-12.999,16.998C105.22,336.349,109.573,334.374,108.717,332.041z M88.719,301.044   c3.554-5.796,14.143-10.153,19.998-12.998c1.091-0.53,8.639-1.136,4-3C104.414,289.416,89.283,292.268,88.719,301.044z    M77.721,309.043c2.938-1.1,8.392-4.888,6.999-6.999C82.298,304.289,79.046,305.703,77.721,309.043z M81.72,333.041   c3.768,0.769,4.779-1.22,7.999-1c-2.774-6.802,3.805-21.386-3-25.996C88.041,314.724,84.336,325.162,81.72,333.041z    M67.722,332.041c2.656-0.01,5.71,0.378,6.999-1c-2.221-7.075,0.292-14.869,3-19.997c-1.278-0.055-1.385-1.281-3-1   C72.581,317.568,69.079,323.732,67.722,332.041z"
   id="path3289" />
	<path
   fill-rule="evenodd"
   clip-rule="evenodd"
   fill="#FFFFFF"
   d="M175.708,318.042c1.125-0.286-0.063,4.708,2,2   c1.358,4.052-8.812,5.165-8.999,10.998c-2.237-1.98,0.979-6.962,1-9.998C173.246,321.58,174.861,320.194,175.708,318.042z"
   id="path3291" />
	<path
   fill-rule="evenodd"
   clip-rule="evenodd"
   d="M202.705,320.042c-0.077,4.248-6.442,4.581-9.998,6.999   c-5.865,3.988-9.522,9.397-11.999,15.998C180.246,331.573,193.488,325.162,202.705,320.042z"
   id="path3293" />
	<path
   fill-rule="evenodd"
   clip-rule="evenodd"
   fill="#FFFFFF"
   d="M127.714,49.076c2.109,6.232,5.498,10.052,12.999,8.999   c4.667-0.655,5.373-4.17,8.999-6C158.15,77.222,118.23,70.803,127.714,49.076z"
   id="path3295" />
	<path
   fill-rule="evenodd"
   clip-rule="evenodd"
   fill="#FFFFFF"
   d="M177.708,175.061c-0.48-12.186-6.069-19.262-11.999-25.997   c10.867-15.387,32.227-6.746,25.997,13.998c-2.592,0.758-4.616,5.089-6.999,3C182.201,168.888,180.4,172.419,177.708,175.061z"
   id="path3297" />
	<path
   fill-rule="evenodd"
   clip-rule="evenodd"
   fill="#FFFFFF"
   d="M71.721,152.063c2.735-2.992,6.607,1.334,10.999,0   c-0.819,2.903,4.763,6.932,6.999,9.999c4.042,19.072,5.557,49.969-4,63.992c-11.811,5.178-15.051-7.672-16.998-18.998   c-0.98-5.704-3.471-11.131,1-11.998c4.459,8.206,1.587,23.743,7.999,29.996c-1.477-6.199-3.473-20.517-6-28.996   c2.806-4.813,7.515-4.131,8.999-9.999c1.328-5.252-3.703-12.001,0-17.998C76.439,164.01,76.591,155.526,71.721,152.063z    M85.72,186.059c4.276-1.436,6.631-11.864,3-14.998C89.37,177.71,87.458,181.798,85.72,186.059z"
   id="path3299" />
</g>
</svg>